<svg id="svg" version="1.1" xmlns="http://www.w3.org/2000/svg" xmlns:xlink="http://www.w3.org/1999/xlink" width="400" height="400" viewBox="0, 0, 400,400"><g id="svgg"><path id="path0" d="M76.702 121.039 C 73.051 122.162,73.400 114.083,73.400 197.450 L 73.400 271.136 74.342 272.138 C 76.848 274.806,90.297 274.944,92.667 272.326 C 93.362 271.558,93.410 269.775,93.600 237.926 C 93.795 205.258,93.821 204.320,94.576 203.768 C 95.739 202.918,161.061 202.918,162.224 203.768 C 162.979 204.320,163.005 205.259,163.200 238.003 L 163.400 271.671 164.338 272.430 C 167.436 274.939,179.661 274.775,182.246 272.190 L 183.200 271.236 183.200 197.637 C 183.200 117.775,183.348 122.559,180.845 121.328 C 178.765 120.305,169.742 120.069,166.687 120.958 C 163.122 121.994,163.425 119.177,163.200 153.400 C 163.036 178.424,162.902 183.996,162.451 184.539 C 161.607 185.555,95.193 185.555,94.349 184.539 C 93.898 183.996,93.764 178.409,93.600 153.303 L 93.400 122.729 92.495 121.997 C 90.511 120.390,80.739 119.798,76.702 121.039 M227.952 122.248 C 226.782 122.900,225.754 123.887,225.152 124.939 L 224.200 126.600 224.093 195.774 C 223.971 275.357,223.696 270.136,228.134 272.509 C 230.418 273.730,269.918 273.862,279.167 272.680 C 320.662 267.374,341.280 241.812,341.338 195.600 C 341.384 159.111,326.342 135.106,297.343 125.392 C 286.561 121.780,280.304 121.198,252.402 121.210 L 229.800 121.219 227.952 122.248 M278.612 138.947 C 305.566 143.631,319.980 163.583,319.997 196.231 C 320.014 230.484,307.218 249.955,281.400 254.960 C 274.060 256.383,248.372 257.099,245.853 255.951 C 244.358 255.270,244.411 257.422,244.411 197.200 C 244.411 137.663,244.378 139.144,245.735 138.446 C 247.111 137.738,274.015 138.148,278.612 138.947 " stroke="none" fill="#f9f9f6" fill-rule="evenodd"></path><path id="path1" d="M0.000 200.000 L 0.000 400.000 200.000 400.000 L 400.000 400.000 400.000 200.000 L 400.000 0.000 200.000 0.000 L 0.000 0.000 0.000 200.000 M89.576 120.832 C 90.684 121.070,91.998 121.594,92.495 121.997 L 93.400 122.729 93.600 153.303 C 93.764 178.409,93.898 183.996,94.349 184.539 C 95.193 185.555,161.607 185.555,162.451 184.539 C 162.902 183.996,163.036 178.424,163.200 153.400 C 163.425 119.177,163.122 121.994,166.687 120.958 C 169.742 120.069,178.765 120.305,180.845 121.328 C 183.348 122.559,183.200 117.775,183.200 197.637 L 183.200 271.236 182.246 272.190 C 179.661 274.775,167.436 274.939,164.338 272.430 L 163.400 271.671 163.200 238.003 C 163.005 205.259,162.979 204.320,162.224 203.768 C 161.061 202.918,95.739 202.918,94.576 203.768 C 93.821 204.320,93.795 205.258,93.600 237.926 C 93.410 269.775,93.362 271.558,92.667 272.326 C 90.297 274.944,76.848 274.806,74.342 272.138 L 73.400 271.136 73.400 197.450 C 73.400 114.083,73.051 122.162,76.702 121.039 C 78.990 120.336,86.683 120.212,89.576 120.832 M280.147 121.802 C 320.073 126.472,341.393 152.184,341.338 195.600 C 341.280 241.812,320.662 267.374,279.167 272.680 C 269.918 273.862,230.418 273.730,228.134 272.509 C 223.696 270.136,223.971 275.357,224.093 195.774 L 224.200 126.600 225.152 124.939 C 225.754 123.887,226.782 122.900,227.952 122.248 L 229.800 121.219 252.402 121.210 C 270.023 121.202,276.138 121.333,280.147 121.802 M245.735 138.446 C 244.378 139.144,244.411 137.663,244.411 197.200 C 244.411 257.422,244.358 255.270,245.853 255.951 C 248.372 257.099,274.060 256.383,281.400 254.960 C 307.218 249.955,320.014 230.484,319.997 196.231 C 319.980 163.583,305.566 143.631,278.612 138.947 C 274.015 138.148,247.111 137.738,245.735 138.446 " stroke="none" fill="#040404" fill-rule="evenodd"></path></g></svg>